<?xml version="1.0" ?><!DOCTYPE svg  PUBLIC '-//W3C//DTD SVG 1.1//EN'  'http://www.w3.org/Graphics/SVG/1.1/DTD/svg11.dtd'><svg height="6.82666in" style="shape-rendering:geometricPrecision; text-rendering:geometricPrecision; image-rendering:optimizeQuality; fill-rule:evenodd; clip-rule:evenodd" viewBox="0 0 6.82666 6.82666" width="6.82666in" xml:space="preserve" xmlns="http://www.w3.org/2000/svg" xmlns:xlink="http://www.w3.org/1999/xlink"><defs><style type="text/css">
   <![CDATA[
    .fil5 {fill:#1976D2}
    .fil4 {fill:#64DD17}
    .fil6 {fill:#AB47BC}
    .fil1 {fill:#BCBDBD}
    .fil2 {fill:#F44336}
    .fil3 {fill:#FFEB3B}
    .fil0 {fill:#E8E9E9}
   ]]>
  </style></defs><g id="Layer_x0020_1"><path class="fil0" d="M3.4133 6.82661c-1.88508,0 -3.41328,-1.5282 -3.41328,-3.41328 0,-1.88513 1.5282,-3.41333 3.41328,-3.41333 1.88513,0 3.41333,1.5282 3.41333,3.41333 0,1.88508 -1.5282,3.41328 -3.41333,3.41328z"/><path class="fil1" d="M6.35917 3.4133c0,1.62687 -1.31896,2.94584 -2.94583,2.94584 -1.62688,0 -2.94583,-1.31897 -2.94583,-2.94584 0,-1.62687 1.31896,-2.94583 2.94583,-2.94583 1.62687,0 2.94583,1.31895 2.94583,2.94583z"/><path class="fil2" d="M5.18025 4.21188c0.118752,-0.26089 0.179693,-0.538307 0.179693,-0.82463 0,-0.238307 -0.0460551,-0.472831 -0.130756,-0.698425 -0.0480669,0.0528701 -1.3231,1.45494 -1.38527,1.52306l1.33633 0z"/><path class="fil3" d="M5.06541 4.42289l-2.3694 0 0 0.85115c0.213343,0.0743661 0.435323,0.113232 0.659724,0.113232 0.696508,5.90551e-005 1.34672,-0.369472 1.70967,-0.964382z"/><path class="fil4" d="M2.48484 2.56799l0 2.61597c-0.633657,-0.306469 -1.06044,-0.923287 -1.12494,-1.61422l0 -0.366681c0.0204685,-0.219122 0.0771614,-0.431807 0.168476,-0.635063l0.956469 0z"/><path class="fil5" d="M1.64404 2.35785l1.72327 0c-0.060937,-0.0667756 -0.731764,-0.803331 -0.752642,-0.826394 -0.40276,0.160331 -0.744531,0.452996 -0.970626,0.826394z"/><path class="fil6" d="M5.13766 2.47611c-0.345331,-0.671606 -1.02624,-1.08883 -1.78193,-1.08883 -0.172047,0 -0.347047,0.0259449 -0.520539,0.0727677 0.0494528,0.0543661 1.58232,1.73826 1.61412,1.77283 0.0306969,-0.0338583 0.667626,-0.73413 0.688346,-0.756768z"/></g></svg>